<?xml version="1.0" standalone="no"?>
<!DOCTYPE svg PUBLIC "-//W3C//DTD SVG 20010904//EN"
 "http://www.w3.org/TR/2001/REC-SVG-20010904/DTD/svg10.dtd">
<svg version="1.0" xmlns="http://www.w3.org/2000/svg"
 width="664.000000pt" height="664.000000pt" viewBox="0 0 664.000000 664.000000"
 preserveAspectRatio="xMidYMid meet">
<metadata>
Created by potrace 1.16, written by Peter Selinger 2001-2019
</metadata>
<g transform="translate(0.000000,664.000000) scale(0.100000,-0.100000)"
fill="#000000" stroke="none">
<path d="M1764 6273 c-43 -3 -59 -10 -93 -42 -22 -21 -41 -43 -41 -49 0 -6 -6
-17 -12 -24 -27 -29 -38 -60 -38 -108 0 -27 5 -50 10 -50 6 0 10 -11 10 -25 0
-14 4 -25 9 -25 4 0 11 -15 14 -34 6 -40 34 -76 59 -76 10 0 18 -4 18 -10 0
-5 8 -10 18 -10 27 0 42 -20 42 -55 0 -17 4 -35 10 -41 5 -5 13 -75 16 -154 6
-128 5 -147 -10 -159 -10 -8 -16 -29 -16 -55 0 -23 -4 -46 -9 -51 -6 -6 -13
-115 -17 -242 -4 -128 -10 -233 -14 -233 -4 0 -11 -72 -15 -160 -4 -88 -11
-160 -16 -160 -5 0 -9 -78 -9 -175 0 -151 2 -178 17 -195 10 -11 28 -20 40
-20 13 0 23 -4 23 -10 0 -5 11 -10 25 -10 14 0 25 -4 25 -10 0 -5 18 -13 40
-16 22 -4 40 -10 40 -14 0 -4 20 -11 45 -14 25 -4 45 -11 45 -17 0 -5 9 -9 19
-9 50 0 69 -34 32 -57 -10 -6 -21 -24 -25 -38 -4 -15 -17 -36 -29 -48 -25 -26
-45 -55 -53 -79 -4 -10 -10 -18 -14 -18 -4 0 -10 -18 -14 -40 -3 -22 -10 -40
-15 -40 -5 0 -13 -25 -16 -55 -4 -30 -11 -55 -16 -55 -5 0 -9 -18 -9 -39 0
-23 -5 -41 -12 -43 -10 -4 -13 -63 -13 -253 0 -190 3 -249 13 -252 6 -3 12
-15 12 -28 0 -13 6 -26 13 -28 6 -3 2 -6 -10 -6 -13 -1 -23 -5 -23 -11 0 -5
-7 -10 -15 -10 -20 0 -95 -33 -95 -42 0 -3 -13 -9 -30 -13 -16 -4 -30 -11 -30
-16 0 -5 -10 -11 -23 -14 -13 -4 -31 -17 -41 -31 -11 -13 -23 -24 -28 -24 -13
0 -88 -77 -88 -90 0 -6 -7 -13 -15 -16 -8 -3 -17 -16 -21 -27 -4 -12 -15 -29
-25 -38 -10 -8 -21 -27 -24 -42 -4 -15 -11 -27 -16 -27 -5 0 -9 -5 -9 -11 0
-13 -31 -82 -40 -89 -4 -3 -10 -12 -14 -20 -28 -59 -54 -87 -90 -96 -14 -3
-26 -10 -26 -15 0 -5 -11 -9 -25 -9 -14 0 -25 -4 -25 -9 0 -5 -13 -12 -30 -16
-16 -4 -30 -10 -30 -15 0 -5 -10 -12 -22 -16 -13 -4 -37 -22 -55 -40 -17 -19
-36 -34 -41 -34 -11 0 -151 -140 -165 -166 -6 -10 -27 -34 -49 -54 -21 -20
-38 -42 -38 -48 0 -7 -4 -12 -10 -12 -5 0 -12 -11 -16 -25 -3 -14 -9 -25 -13
-25 -4 0 -16 -18 -27 -40 -10 -22 -22 -40 -26 -40 -5 0 -8 -6 -8 -12 0 -7 -7
-26 -16 -43 -9 -16 -18 -54 -21 -83 -3 -28 -10 -52 -14 -52 -5 0 -9 -47 -9
-105 0 -58 4 -105 9 -105 4 0 11 -28 15 -62 3 -35 11 -64 16 -66 6 -2 10 -11
10 -20 0 -18 59 -141 78 -160 6 -7 12 -18 12 -23 0 -10 12 -25 65 -82 18 -20
41 -50 51 -66 10 -17 24 -31 30 -31 6 0 30 -18 52 -40 22 -22 45 -40 51 -40 6
0 14 -6 17 -14 3 -7 21 -22 40 -32 19 -10 34 -22 34 -26 0 -5 6 -8 14 -8 8 0
21 -6 28 -13 7 -6 32 -21 55 -32 24 -11 43 -23 43 -27 0 -3 13 -9 30 -13 17
-4 30 -10 30 -15 0 -4 16 -11 35 -14 19 -4 35 -11 35 -16 0 -6 11 -10 24 -10
13 0 26 -5 28 -10 2 -6 21 -13 43 -17 22 -3 43 -10 46 -16 4 -5 48 -12 98 -15
50 -2 91 -9 91 -13 0 -5 15 -9 34 -9 19 0 36 -5 38 -10 2 -6 27 -13 56 -17 28
-3 52 -9 52 -13 0 -4 19 -10 42 -13 24 -3 44 -11 46 -16 2 -6 11 -11 21 -11 9
0 22 -5 27 -10 6 -6 41 -13 78 -17 36 -3 69 -10 72 -14 7 -12 234 -12 234 0 0
4 28 11 62 15 61 6 118 24 118 38 0 3 14 9 30 13 17 4 30 11 30 16 0 5 7 9 15
9 8 0 25 11 39 25 14 14 28 25 32 25 4 0 42 36 85 80 l79 80 72 6 c40 4 76 12
80 18 11 17 480 15 486 -1 2 -8 21 -13 47 -13 24 0 56 -5 72 -11 56 -22 333
-4 333 22 0 3 18 9 40 13 22 3 40 10 40 15 0 5 14 12 30 16 17 4 30 11 30 16
0 5 7 9 15 9 8 0 15 4 15 9 0 5 10 13 21 16 23 8 79 60 79 74 0 12 204 1 208
-10 5 -12 112 -12 112 0 0 4 30 11 67 14 38 4 69 11 71 17 2 5 13 10 24 10 22
0 78 30 78 42 0 4 7 8 15 8 9 0 18 7 21 15 4 8 13 15 21 15 8 0 35 21 59 46
39 39 49 45 72 39 15 -4 30 -12 34 -18 4 -6 36 -13 73 -15 l66 -4 -3 241 c-2
201 -6 243 -18 252 -18 12 -160 4 -169 -10 -3 -5 -19 -13 -34 -16 -15 -4 -27
-11 -27 -16 0 -5 -10 -9 -23 -9 -13 0 -32 -7 -43 -15 -10 -8 -31 -15 -46 -15
-16 0 -28 -4 -28 -10 0 -5 -15 -10 -33 -10 -45 0 -67 -28 -67 -86 0 -37 6 -51
28 -73 15 -16 38 -31 50 -35 12 -4 22 -15 22 -25 0 -14 -10 -20 -47 -24 -26
-3 -49 -10 -51 -16 -2 -6 -19 -13 -38 -17 -19 -3 -37 -10 -40 -15 -3 -5 -16
-9 -29 -9 -13 0 -25 -4 -27 -10 -4 -13 -136 -24 -182 -16 l-36 7 0 74 c0 41
-4 75 -9 75 -4 0 -11 30 -14 67 -4 37 -11 69 -15 72 -5 3 -12 23 -16 44 -4 20
-11 37 -16 37 -6 0 -10 7 -10 15 0 8 -4 15 -10 15 -5 0 -12 16 -16 35 -3 19
-9 35 -13 35 -3 0 -15 20 -26 45 -11 25 -23 45 -27 45 -5 0 -8 6 -8 13 0 18
-34 57 -49 57 -6 0 -11 7 -11 15 0 8 5 15 10 15 6 0 10 -4 10 -9 0 -4 30 -11
67 -14 38 -4 69 -11 71 -17 2 -5 32 -10 67 -10 41 0 65 -4 67 -12 3 -8 33 -14
81 -16 42 -2 77 -8 77 -13 0 -5 7 -9 15 -9 9 0 15 -9 15 -25 0 -14 11 -37 24
-50 14 -13 27 -34 31 -45 5 -16 15 -20 46 -20 21 0 39 -4 39 -10 0 -5 23 -10
50 -10 28 0 50 5 50 10 0 6 6 10 14 10 8 0 28 13 45 29 25 23 31 37 31 69 0
23 -7 47 -15 56 -8 8 -15 31 -15 52 0 36 -10 49 -74 101 -18 15 -116 17 -116
3 0 -31 -46 4 -55 42 -3 13 -17 32 -31 42 -13 11 -24 23 -24 29 0 6 -22 32
-50 59 -27 27 -50 51 -50 53 0 3 11 5 25 5 14 0 25 4 25 9 0 5 25 12 55 16 30
3 55 10 55 14 0 5 18 11 40 15 22 3 40 11 40 16 0 6 11 10 25 10 14 0 25 4 25
9 0 5 14 12 30 16 17 4 30 10 30 15 0 5 13 11 30 15 16 4 36 15 43 25 7 10 24
21 38 25 27 7 79 49 79 65 0 5 10 12 22 16 22 7 78 56 78 69 0 3 18 25 40 47
22 23 40 48 40 55 0 6 6 16 13 20 14 8 47 73 47 91 0 6 5 12 11 14 6 2 13 41
16 86 3 45 10 82 14 82 5 0 9 11 9 25 0 14 4 25 9 25 5 0 12 12 16 27 3 15 11
30 16 33 5 4 12 34 15 68 4 34 11 62 15 62 12 0 12 367 0 372 -4 2 -11 40 -15
86 l-6 82 30 0 c16 0 30 4 30 9 0 5 40 12 90 15 49 4 92 12 95 17 4 5 24 9 46
9 21 0 39 4 39 9 0 4 15 12 32 17 23 7 36 18 43 39 5 17 13 32 16 35 4 3 10
29 14 58 4 28 11 52 16 52 5 0 9 14 9 30 0 17 4 30 9 30 5 0 13 36 17 80 3 44
11 80 15 80 5 0 9 18 9 40 0 22 -4 40 -10 40 -5 0 -10 7 -10 15 0 8 5 15 10
15 6 0 10 11 10 25 0 14 11 34 24 46 15 13 27 37 31 63 3 22 10 50 15 61 5 11
11 37 15 58 3 20 10 37 15 37 6 0 10 11 10 24 0 13 5 26 10 28 6 2 13 33 17
71 3 37 9 67 13 67 4 0 10 18 14 40 3 22 10 40 15 40 9 0 11 10 31 135 6 38
15 72 20 75 5 3 12 18 15 33 4 15 11 27 16 27 5 0 9 13 9 29 0 16 3 41 6 57
l5 29 75 -3 c45 -2 74 0 74 6 0 6 14 13 30 17 21 5 30 13 30 26 0 10 4 19 8
19 5 0 13 17 18 38 6 23 17 41 32 47 12 5 22 15 22 22 0 7 5 13 10 13 6 0 10
30 10 69 0 39 -4 73 -10 76 -5 3 -10 17 -10 30 0 37 -32 84 -62 91 -16 3 -28
10 -28 15 0 5 -8 9 -17 9 -10 0 -27 7 -37 15 -37 28 -176 10 -206 -26 -3 -4
-16 -10 -29 -14 -35 -11 -61 -37 -61 -62 0 -13 -4 -23 -10 -23 -5 0 -10 -11
-10 -24 0 -14 -4 -28 -10 -31 -5 -3 -10 -27 -10 -53 0 -26 -4 -52 -8 -58 -4
-6 -41 -14 -82 -18 -41 -3 -76 -11 -78 -16 -2 -6 -26 -10 -53 -10 -27 0 -49
-4 -49 -9 0 -5 -25 -12 -55 -16 -30 -3 -55 -11 -55 -16 0 -5 -7 -9 -15 -9 -8
0 -23 -9 -32 -20 -10 -11 -23 -20 -30 -20 -7 0 -13 -4 -13 -10 0 -5 -18 -10
-40 -10 -22 0 -40 -4 -40 -8 0 -5 -48 -12 -106 -15 -58 -3 -111 -11 -118 -16
-7 -6 -34 -14 -60 -17 -26 -4 -49 -11 -52 -15 -3 -5 -16 -9 -30 -9 -13 0 -24
-4 -24 -9 0 -5 -27 -12 -60 -16 -33 -4 -60 -10 -60 -15 0 -4 -31 -11 -70 -14
-38 -4 -72 -11 -75 -17 -4 -5 -19 -9 -36 -9 -16 0 -29 -4 -29 -9 0 -5 -25 -12
-55 -16 -30 -3 -55 -10 -55 -14 0 -5 -16 -11 -35 -14 -20 -3 -47 -19 -65 -37
-30 -31 -30 -32 -37 -171 -3 -77 -9 -136 -12 -131 -3 5 -17 13 -31 17 -14 4
-27 10 -30 14 -12 14 -70 41 -89 41 -12 0 -21 4 -21 9 0 5 -25 13 -55 16 -30
4 -55 11 -55 16 0 5 -8 9 -17 9 -10 0 -36 7 -58 15 -22 8 -55 14 -72 15 -18 0
-33 4 -33 9 0 5 -35 12 -77 16 -43 4 -81 12 -85 18 -4 7 -77 11 -221 11 l-215
-1 5 36 c4 20 10 38 15 39 11 5 10 112 -1 112 -5 0 -12 10 -15 23 -4 12 -25
36 -47 52 -22 17 -48 38 -57 48 -9 9 -23 17 -30 17 -8 0 -23 11 -34 25 -11 14
-26 25 -34 25 -8 0 -14 4 -14 10 0 5 -11 12 -24 16 -14 3 -27 12 -30 20 -3 8
-11 14 -18 14 -8 0 -20 9 -28 20 -8 11 -20 20 -27 20 -7 0 -21 9 -30 20 -10
11 -25 20 -35 20 -9 0 -20 9 -23 20 -3 11 -13 20 -20 20 -8 0 -28 14 -45 30
-17 17 -33 30 -36 30 -5 0 -20 11 -49 38 -7 6 -18 12 -24 12 -5 0 -14 6 -18
13 -4 8 -21 22 -38 33 -16 10 -34 24 -38 31 -4 7 -12 13 -18 13 -5 0 -22 11
-37 25 -15 14 -30 25 -35 25 -4 0 -18 11 -31 25 -13 14 -28 25 -35 25 -6 0
-21 11 -33 25 -12 14 -27 25 -33 25 -6 0 -18 9 -28 20 -9 11 -23 20 -30 20 -7
0 -21 11 -31 25 -10 14 -25 25 -32 25 -8 0 -14 4 -14 9 0 5 -10 13 -22 17 -13
4 -30 14 -38 23 -18 19 -46 37 -77 51 -13 5 -23 14 -23 20 0 5 -7 10 -15 10
-19 0 -19 17 0 54 17 32 21 156 5 156 -5 0 -10 6 -10 13 0 16 -46 54 -90 74
-23 10 -37 26 -44 51 -5 14 -15 22 -30 22 -13 0 -36 2 -52 3 -16 2 -52 2 -80
0z m100 -83 c7 -7 2 -18 -14 -33 -65 -58 -80 -156 -34 -228 14 -23 23 -43 21
-46 -15 -14 -85 14 -124 50 -43 39 -43 40 -43 107 0 76 7 88 80 140 46 32 88
36 114 10z m96 -348 c0 -4 10 -12 22 -17 22 -10 22 -13 19 -170 -1 -88 -6
-162 -10 -165 -5 -3 -11 -95 -15 -205 -4 -110 -11 -220 -16 -245 -5 -25 -9
-93 -10 -152 0 -59 -4 -109 -9 -112 -11 -7 -26 -514 -16 -545 3 -11 13 -21 20
-21 8 0 31 -7 52 -16 67 -29 77 -33 113 -42 25 -6 36 -14 38 -30 7 -46 42 -27
168 91 124 116 298 239 430 305 138 69 290 114 564 168 91 18 314 15 395 -5
22 -5 78 -17 125 -26 95 -19 110 -23 225 -61 204 -67 382 -154 511 -249 153
-113 418 -378 398 -398 -3 -3 -42 31 -87 75 -45 44 -98 92 -117 107 -19 14
-40 31 -46 36 -6 6 -22 17 -34 25 -12 8 -40 27 -61 43 -21 15 -43 27 -48 27
-5 0 -11 3 -13 8 -1 4 -34 23 -73 42 -38 19 -71 38 -73 43 -2 4 -8 7 -14 7 -5
0 -24 6 -41 14 -18 8 -70 29 -117 46 -47 18 -92 36 -100 40 -9 4 -31 11 -50
14 -19 4 -44 11 -55 15 -42 17 -155 41 -194 41 -23 0 -41 5 -41 10 0 6 -75 10
-204 10 -126 0 -207 -4 -211 -10 -3 -5 -21 -10 -38 -10 -34 0 -169 -27 -202
-41 -11 -4 -36 -11 -55 -15 -19 -3 -39 -10 -45 -14 -5 -4 -22 -10 -38 -14 -59
-14 -315 -140 -361 -177 -6 -5 -45 -33 -86 -62 -109 -77 -189 -151 -285 -260
-57 -66 -165 -226 -165 -244 0 -7 -4 -13 -10 -13 -5 0 -10 -5 -10 -11 0 -6 -6
-25 -14 -42 -8 -18 -22 -54 -31 -82 -9 -27 -21 -58 -26 -67 -5 -9 -12 -36 -15
-60 -4 -24 -10 -47 -14 -53 -9 -12 -34 -205 -34 -255 1 -19 5 -65 9 -102 7
-57 5 -68 -7 -68 -20 0 -64 133 -80 243 -10 75 -10 103 4 190 17 109 33 179
47 212 5 11 12 29 14 40 3 11 17 52 32 90 16 43 25 86 24 110 -3 43 18 102 44
124 10 7 17 19 17 25 1 6 14 27 30 46 l30 34 -22 13 c-13 7 -32 12 -43 13 -51
1 -290 92 -298 114 -2 6 2 88 9 181 7 94 13 228 13 298 1 70 7 185 15 255 8
70 20 191 27 268 10 126 10 145 -5 174 -22 46 -23 228 -1 244 16 12 44 111 45
158 0 19 9 32 33 46 33 21 67 28 67 14z m4291 -394 c27 -28 49 -55 49 -60 0
-11 -60 0 -74 13 -13 12 -73 11 -81 -1 -3 -5 -15 -10 -27 -10 -17 0 -56 -34
-95 -83 -7 -9 -13 -26 -13 -37 0 -15 -5 -20 -17 -18 -25 4 -29 88 -8 143 27
72 77 102 173 104 39 1 47 -4 93 -51z m-277 -279 c14 -17 26 -36 26 -43 0 -20
-22 -36 -51 -36 -15 0 -30 -4 -33 -9 -4 -5 -30 -12 -59 -16 -28 -3 -61 -10
-72 -14 -34 -14 -152 -41 -179 -41 -13 0 -27 -4 -30 -9 -3 -5 -31 -12 -62 -16
-32 -4 -64 -10 -73 -15 -22 -11 -153 -43 -253 -63 -32 -6 -58 -14 -58 -18 0
-4 -25 -11 -55 -14 -30 -4 -55 -11 -55 -16 0 -5 -13 -9 -29 -9 -17 0 -32 -4
-36 -9 -3 -6 -27 -13 -53 -17 -26 -3 -51 -10 -57 -14 -5 -5 -31 -11 -58 -15
-26 -4 -50 -11 -53 -16 -3 -5 -16 -9 -29 -9 -13 0 -26 -4 -29 -9 -4 -5 -23
-12 -44 -16 -63 -10 -78 -30 -91 -118 -6 -43 -11 -102 -11 -132 0 -30 -3 -55
-8 -55 -4 0 -23 11 -43 24 l-36 25 -7 113 c-8 132 0 205 23 217 9 5 50 16 91
26 41 10 135 38 208 62 73 24 163 50 200 58 236 47 312 73 312 107 0 13 8 18
29 18 17 0 33 5 36 10 3 6 19 10 35 10 16 0 41 5 55 12 23 10 28 10 36 -5 12
-21 71 -23 131 -3 24 7 70 21 103 30 33 9 74 21 91 26 17 6 44 10 60 11 16 0
38 4 49 9 35 15 53 11 79 -21z m-2371 -1017 c123 -34 250 -132 297 -229 13
-26 27 -56 32 -65 11 -24 10 -205 -1 -213 -5 -3 -12 -19 -16 -35 -4 -17 -11
-30 -16 -30 -5 0 -9 -5 -9 -11 0 -20 -54 -80 -99 -112 -35 -24 -58 -32 -96
-33 -68 -3 -67 -3 -60 -14 3 -5 -3 -31 -15 -56 l-20 -47 -56 6 c-30 3 -61 11
-69 17 -7 6 -38 12 -68 14 -30 2 -61 7 -68 12 -8 4 -40 10 -72 11 -65 4 -67
-2 -13 -47 49 -41 78 -72 72 -77 -7 -7 -145 110 -281 241 -86 82 -107 107 -98
117 10 9 33 -9 110 -85 103 -103 139 -135 114 -104 -9 12 -11 30 -7 53 4 20 3
35 -2 35 -15 0 -97 85 -134 137 -32 47 -33 51 -33 149 0 56 5 112 11 125 7 13
20 42 29 64 25 58 98 125 136 125 22 0 32 6 36 19 6 24 22 31 98 47 85 17 207
11 298 -14z m-563 -748 c201 -201 247 -238 300 -236 56 2 326 74 498 132 220
74 212 74 307 3 89 -67 128 -106 234 -240 40 -51 77 -93 82 -93 19 0 8 64 -22
118 -31 56 -85 132 -128 181 -12 13 -18 27 -15 30 15 15 214 -223 214 -256 0
-7 4 -13 9 -13 4 0 23 -33 40 -72 18 -40 37 -82 42 -93 18 -40 39 -158 39
-216 0 -57 -25 -183 -40 -204 -4 -5 -11 -25 -15 -42 -3 -18 -11 -33 -16 -33
-5 0 -9 -5 -9 -10 0 -19 -76 -114 -121 -152 -85 -73 -92 -78 -106 -78 -7 0
-13 -3 -13 -8 0 -4 -21 -15 -47 -24 -53 -18 -123 -33 -123 -25 0 2 39 27 88
53 109 61 235 183 275 265 52 111 61 148 62 259 0 89 -3 110 -20 135 l-20 29
-7 -114 c-3 -63 -13 -142 -22 -174 -48 -175 -187 -326 -359 -391 -169 -63
-445 -98 -600 -76 -45 6 -113 15 -152 21 -106 14 -230 40 -360 73 -151 39
-153 41 -217 102 -66 63 -117 85 -196 85 -128 0 -282 -138 -282 -253 l0 -38
-57 43 c-181 133 -308 116 -358 -49 -8 -26 -15 -60 -15 -75 0 -27 -2 -28 -54
-28 -85 0 -165 -44 -166 -91 0 -9 -7 -30 -16 -48 -21 -41 -13 -93 24 -170 37
-76 188 -228 262 -264 55 -27 216 -84 320 -114 30 -9 59 -20 64 -24 5 -5 18
-40 27 -80 19 -71 88 -224 130 -288 l22 -33 -44 7 c-24 3 -57 10 -74 15 -16 4
-61 11 -100 14 -71 6 -105 15 -232 60 -82 29 -128 33 -137 11 -9 -24 34 -44
166 -80 68 -18 155 -42 193 -53 39 -11 117 -23 174 -26 94 -6 107 -10 140 -36
20 -16 53 -36 74 -45 20 -8 37 -21 37 -29 0 -23 -132 -139 -195 -172 -105 -55
-175 -66 -400 -65 -110 1 -222 1 -250 1 -27 0 -54 5 -59 10 -6 6 -22 10 -37
10 -15 0 -31 4 -34 10 -3 5 -28 12 -55 16 -29 4 -50 12 -50 19 0 23 -37 46
-154 95 -384 163 -589 306 -721 505 -96 145 -120 218 -120 370 0 109 3 126 29
189 16 39 43 93 61 122 41 70 137 193 150 194 6 0 9 -25 7 -61 -7 -116 62
-302 173 -469 58 -87 217 -239 325 -311 148 -98 313 -169 396 -169 38 0 45 3
42 17 -3 18 -56 47 -208 117 -187 86 -353 204 -437 309 -177 224 -252 402
-223 530 47 206 163 281 455 293 196 9 216 23 241 171 30 180 48 269 61 293 7
14 13 31 13 38 0 7 22 34 48 61 80 80 179 99 333 65 169 -38 264 -103 417
-284 93 -109 122 -131 122 -92 0 31 -72 133 -141 199 -68 66 -134 115 -236
178 l-63 38 0 57 c0 80 41 201 96 281 47 70 159 182 199 201 14 6 25 14 25 18
0 4 8 11 18 14 9 3 26 12 37 19 97 61 160 85 230 86 l60 1 165 -166z m-1377
-671 c-3 -10 -9 -22 -13 -28 -22 -31 -42 -129 -50 -245 -11 -173 -11 -174
-146 -171 -54 1 -102 5 -106 9 -5 5 3 24 18 43 14 18 52 87 86 151 50 97 73
129 133 187 76 74 88 83 78 54z m1043 -472 c63 -29 132 -103 140 -150 4 -22
14 -46 23 -54 30 -26 152 -51 252 -52 111 -1 108 1 186 -102 30 -40 83 -99
117 -130 34 -32 90 -93 125 -135 76 -95 108 -121 137 -114 13 4 29 0 38 -9 19
-19 26 -19 26 0 0 8 4 15 9 15 5 0 12 23 16 52 4 29 11 59 16 68 7 14 18 53
38 135 6 25 12 31 40 33 l34 3 -7 -57 c-4 -32 -10 -62 -15 -68 -12 -16 -71
-158 -71 -173 0 -15 -40 -44 -52 -37 -20 13 -78 -99 -78 -150 0 -30 54 -106
84 -116 59 -21 153 -4 183 32 19 23 26 67 13 83 -21 25 -49 17 -71 -19 -20
-34 -62 -52 -94 -40 -19 8 -45 55 -45 82 0 11 9 31 21 46 27 34 90 37 113 5
17 -25 49 -22 54 5 3 12 -8 30 -28 47 l-32 28 13 53 c7 29 18 65 26 79 7 15
17 49 23 75 12 54 25 67 52 53 15 -8 18 -20 17 -57 -3 -63 13 -113 60 -195 71
-120 101 -191 112 -259 16 -101 10 -140 -24 -156 -59 -28 -75 -83 -52 -173 14
-54 -87 -131 -215 -164 -98 -26 -351 -23 -490 5 -235 49 -205 49 -445 0 -181
-36 -244 -22 -345 80 -103 102 -160 232 -195 445 -19 109 -12 172 26 247 42
82 151 113 237 69 46 -24 107 -87 122 -125 9 -25 14 -28 43 -22 54 11 61 26
62 125 0 49 3 92 6 95 3 3 28 1 55 -4 48 -11 123 -15 197 -12 32 2 37 5 37 27
0 24 -2 25 -77 27 -111 2 -116 3 -140 16 -12 7 -28 12 -37 12 -22 0 -97 42
-130 73 -33 30 -67 35 -87 11 -18 -22 -3 -43 65 -83 l56 -33 0 -94 c0 -52 -2
-94 -4 -94 -2 0 -14 20 -26 45 -42 87 -125 134 -236 135 l-71 0 -11 51 c-7 29
-10 54 -8 57 3 2 23 -3 46 -12 53 -21 123 -21 141 0 20 24 -14 44 -76 44 -67
0 -110 24 -165 94 -40 52 -44 62 -44 112 1 29 6 59 11 66 5 7 18 35 27 61 21
57 48 77 135 98 86 22 89 22 137 0z m-581 -162 c59 -16 166 -91 201 -141 34
-48 50 -82 87 -183 42 -114 41 -111 9 -153 -49 -62 -62 -98 -75 -203 l-12
-101 -55 6 c-85 9 -154 37 -338 137 -124 68 -202 176 -216 301 l-6 58 36 15
c21 9 67 15 110 15 61 0 77 4 99 23 23 19 28 32 32 92 6 85 18 119 46 133 29
14 35 14 82 1z m2215 -150 c80 -107 153 -180 183 -183 37 -4 43 -12 27 -41
-23 -44 -88 -24 -137 42 -15 21 -30 40 -33 43 -3 3 -28 32 -55 66 -107 130
-108 134 -57 134 21 -1 37 -14 72 -61z m379 -246 c6 -12 20 -17 40 -15 28 2
31 0 31 -28 0 -21 -5 -30 -17 -30 -9 0 -31 -16 -49 -35 -43 -48 -84 -48 -113
-1 -27 42 -26 60 1 96 17 24 29 30 59 30 26 0 41 -6 48 -17z m307 -309 c7 -28
-4 -292 -12 -306 -5 -8 -45 15 -78 44 -22 20 -40 15 -81 -22 -16 -15 -57 -47
-90 -71 -33 -24 -66 -49 -72 -56 -7 -6 -39 -24 -70 -40 -57 -27 -62 -28 -228
-28 -143 0 -175 3 -202 17 -17 10 -35 22 -38 28 -10 17 25 24 51 10 42 -23
246 -17 326 10 86 28 174 85 248 160 33 33 66 60 75 60 9 0 31 -11 48 -24 18
-14 44 -29 60 -35 l27 -11 0 139 c0 76 3 141 7 144 13 13 23 7 29 -19z"/>
<path d="M3214 3802 c-71 -60 -72 -168 0 -155 19 4 31 18 47 54 13 27 29 49
36 49 20 0 16 17 -12 45 -30 29 -43 31 -71 7z"/>
<path d="M3652 3728 c-7 -7 -12 -20 -12 -30 0 -11 -7 -33 -16 -51 -12 -23 -13
-32 -5 -35 7 -2 16 -15 21 -28 12 -32 69 -35 77 -4 3 11 9 20 14 20 15 0 10
46 -11 94 -20 47 -43 59 -68 34z"/>
<path d="M2474 3345 c-10 -25 7 -89 27 -103 21 -15 26 -46 7 -40 -7 3 -19 17
-26 31 -14 29 -37 36 -45 14 -7 -19 4 -68 21 -95 12 -19 13 -28 2 -50 -30 -68
-43 -123 -44 -193 -1 -67 2 -81 27 -118 19 -29 43 -49 74 -63 42 -19 51 -19
101 -7 30 7 68 24 84 37 54 46 131 256 113 310 -5 15 -107 97 -139 112 -41 19
-136 107 -152 140 -20 41 -40 51 -50 25z"/>
<path d="M4257 3006 c-21 -19 -54 -37 -75 -40 -20 -4 -48 -11 -62 -16 -14 -4
-52 -16 -85 -25 -140 -40 -148 -51 -149 -220 0 -122 11 -157 67 -208 62 -56
165 -55 226 2 42 39 72 131 78 236 5 87 7 91 39 118 24 20 34 37 34 58 0 35
-28 40 -48 9 -14 -23 -32 -26 -32 -6 0 8 9 17 20 21 25 8 60 57 60 84 0 31
-29 26 -73 -13z"/>
<path d="M3222 2674 c2 -11 14 -21 28 -24 50 -10 90 -42 90 -72 0 -20 -5 -28
-18 -28 -10 0 -23 -5 -29 -11 -8 -8 -21 -8 -50 1 -57 19 -66 29 -60 71 6 43
-3 62 -26 53 -21 -8 -32 -64 -20 -101 13 -38 73 -67 140 -68 44 0 56 4 82 29
17 17 31 38 31 49 0 31 -52 95 -82 101 -92 20 -90 20 -86 0z"/>
</g>
</svg>
