<svg xmlns="http://www.w3.org/2000/svg" width="512" height="512" viewBox="0 0 512 512">
  <path fill="currentColor" d="M256,0 C397.385,0 512,114.615 512,256 C512,397.385 397.385,512 256,512 C114.615,512 0,397.385 0,256 C0,114.615 114.615,0 256,0 Z M180,190 C170,190 160,200 160,210 C160,220 170,230 180,230 C190,230 200,220 200,210 C200,200 190,190 180,190 Z M332,190 C322,190 312,200 312,210 C312,220 322,230 332,230 C342,230 352,220 352,210 C352,200 342,190 332,190 Z M256,290 C236,290 224,308 224,324 C224,344 236,362 256,362 C276,362 288,344 288,324 C288,308 276,290 256,290 Z"/>
</svg>